# xmcd
#
# Track frame offsets:
#	150
#	34151
#	84174
#	120119
#	172899
#	228218
#	263761
#	291918
#	304512
#	342265
#
# Disc length: 4752 seconds
#
# Revision: 0
# Processed by: cddbd v1.5.2PL0 Copyright (c) Steve Scherf et al.
# Submitted via: EZCDAudioConverter 2.1.7.1
#
DISCID=72128e0a
DTITLE=V/A - Celestial Blues
DYEAR=1900
DGENRE=
TTITLE0=Gary Bartz NTU Troop - Celestial Blues
TTITLE1=Joe Henderson and Alice Coltrane - Fire
TTITLE2=Azar Lawrence - Warriors Of Peace
TTITLE3=Charles Earland - Brown Eyes
TTITLE4=Roy Brooks - The Free Slave
TTITLE5=Joe Chambers - The Alomoravid
TTITLE6=Carlos Garnett - Let Us Go (To Higher Heights)
TTITLE7=Bayeté Umbra Zindiko - Let It Take Your Mind
TTITLE8=Hampton Hawes - Josie Black
TTITLE9=Oliver Nelson - Aftermath
EXTD=
EXTT0=
EXTT1=
EXTT2=
EXTT3=
EXTT4=
EXTT5=
EXTT6=
EXTT7=
EXTT8=
EXTT9=
PLAYORDER=
